<svg width="24" height="25" viewBox="0 0 24 25" fill="none" xmlns="http://www.w3.org/2000/svg">
<path fill-rule="evenodd" clip-rule="evenodd" d="M8.5 8.5C8.5 6.567 10.067 5 12 5C13.933 5 15.5 6.56701 15.5 8.5C15.5 10.433 13.933 12 12 12C10.067 12 8.5 10.433 8.5 8.5ZM12 4C9.51472 4 7.5 6.01472 7.5 8.5C7.5 10.9853 9.51472 13 12 13C14.4852 13 16.5 10.9853 16.5 8.5C16.5 6.01471 14.4852 4 12 4ZM4.5 19.7857C4.5 18.7243 4.87551 17.7917 5.59746 17.1218C6.32106 16.4503 7.43953 16 9 16H15C16.5605 16 17.6789 16.4503 18.4025 17.1218C19.1245 17.7917 19.5 18.7243 19.5 19.7857V20.5C19.5 20.7761 19.7239 21 20 21C20.2761 21 20.5 20.7761 20.5 20.5V19.7857C20.5 18.4802 20.0324 17.2699 19.0827 16.3887C18.1348 15.5091 16.7532 15 15 15H9C7.24676 15 5.86523 15.5091 4.91726 16.3887C3.96764 17.2699 3.5 18.4802 3.5 19.7857V20.5C3.5 20.7761 3.72386 21 4 21C4.27614 21 4.5 20.7761 4.5 20.5V19.7857Z" fill="#352B27"/>
</svg>
