<svg width="30" height="21" viewBox="0 0 30 21" fill="none" xmlns="http://www.w3.org/2000/svg">
<path d="M22.1543 0.89502H7.84605C4.03623 0.89502 0.947754 3.81261 0.947754 7.41164V13.5881C0.947754 17.1871 4.03623 20.1047 7.84605 20.1047H22.1543C25.9641 20.1047 29.0526 17.1871 29.0526 13.5881V7.41164C29.0526 3.81261 25.9641 0.89502 22.1543 0.89502Z" fill="#352B27" stroke="#F0DBD5" stroke-miterlimit="10"/>
<path d="M14.7065 0.89502V20.1047" stroke="#F0DBD5" stroke-miterlimit="10"/>
<path d="M14.7065 10.5088C14.7065 10.5088 13.2662 6.76708 10.9351 5.92565C8.24405 4.92309 7.14487 7.44739 8.79364 8.98703C10.6888 10.7415 14.7065 10.5088 14.7065 10.5088Z" fill="#352B27" stroke="#F0DBD5" stroke-miterlimit="10"/>
<path d="M14.498 10.9385C14.498 10.9385 12.2618 16.3093 8.43359 13.6418L14.498 10.9385Z" fill="#352B27"/>
<path d="M14.498 10.9385C14.498 10.9385 12.2618 16.3093 8.43359 13.6418" stroke="#F0DBD5" stroke-miterlimit="10"/>
<path d="M15.1611 10.5088C15.1611 10.5088 16.6772 6.76708 18.9514 5.92565C21.6425 4.92309 22.7417 7.44739 21.1119 8.98703C19.2167 10.7415 15.1611 10.5088 15.1611 10.5088Z" fill="#352B27" stroke="#F0DBD5" stroke-miterlimit="10"/>
<path d="M15.1613 10.2582C13.7778 9.56001 17.1511 16.1124 21.491 13.6419L15.1613 10.2582Z" fill="#352B27"/>
<path d="M15.1613 10.2582C13.7778 9.56001 17.1511 16.1124 21.491 13.6419" stroke="#F0DBD5" stroke-miterlimit="10"/>
<path d="M0.947754 10.5088H29.0526" stroke="#F0DBD5" stroke-miterlimit="10"/>
</svg>
