<svg width="30" height="21" viewBox="0 0 30 21" fill="none" xmlns="http://www.w3.org/2000/svg">
<path d="M22.1541 0.89502H7.8458C4.03598 0.89502 0.94751 3.81261 0.94751 7.41164V13.5881C0.94751 17.1871 4.03598 20.1047 7.8458 20.1047H22.1541C25.9639 20.1047 29.0524 17.1871 29.0524 13.5881V7.41164C29.0524 3.81261 25.9639 0.89502 22.1541 0.89502Z" fill="#D8652B" stroke="#F1EEE3" stroke-miterlimit="10"/>
<path d="M14.7062 0.89502V20.1047" stroke="#F1EEE3" stroke-miterlimit="10"/>
<path d="M14.7062 10.5088C14.7062 10.5088 13.2659 6.76708 10.9349 5.92565C8.24381 4.92309 7.14463 7.44739 8.7934 8.98703C10.6885 10.7415 14.7062 10.5088 14.7062 10.5088Z" fill="#D8652B" stroke="#F1EEE3" stroke-miterlimit="10"/>
<path d="M14.4978 10.9385C14.4978 10.9385 12.2615 16.3093 8.43335 13.6418L14.4978 10.9385Z" fill="#D8652B"/>
<path d="M14.4978 10.9385C14.4978 10.9385 12.2615 16.3093 8.43335 13.6418" stroke="#F1EEE3" stroke-miterlimit="10"/>
<path d="M15.161 10.5088C15.161 10.5088 16.6771 6.76708 18.9513 5.92565C21.6424 4.92309 22.7416 7.44739 21.1117 8.98703C19.2166 10.7415 15.161 10.5088 15.161 10.5088Z" fill="#D8652B" stroke="#F1EEE3" stroke-miterlimit="10"/>
<path d="M15.161 10.258C13.7776 9.55976 17.1509 16.1122 21.4908 13.6416L15.161 10.258Z" fill="#D8652B"/>
<path d="M15.161 10.258C13.7776 9.55976 17.1509 16.1122 21.4908 13.6416" stroke="#F1EEE3" stroke-miterlimit="10"/>
<path d="M0.94751 10.5088H29.0524" stroke="#F1EEE3" stroke-miterlimit="10"/>
</svg>
