<svg width="37" height="27" viewBox="0 0 37 27" fill="none" xmlns="http://www.w3.org/2000/svg">
  <path d="M12.6385 7.35339C12.1695 7.16639 11.7375 7.07339 11.3575 7.07339C10.7745 7.07339 10.3135 7.29139 10.0295 7.72239C9.59349 8.38239 9.63649 9.53439 10.5595 10.4574C12.0575 11.9554 14.7345 12.3234 16.4135 12.4004H16.8195C15.9965 10.6884 14.4215 8.06639 12.6385 7.35339Z" fill="#A13F10" />
  <path d="M23.4218 5.96234C25.6388 5.07434 27.1568 5.86434 27.8398 6.89834C28.7368 8.25934 28.4348 10.2033 27.1178 11.5193C26.7718 11.8653 26.3728 12.1473 25.9548 12.4023H36.7397V3.14434C36.7397 1.41134 35.3297 0.00234413 33.5977 0.00234413H18.7188V11.2093C19.6227 9.44734 21.2728 6.82134 23.4218 5.96234Z" fill="#A13F10" />
  <path d="M26.5879 7.72239C26.3039 7.29239 25.8429 7.07339 25.2599 7.07339C24.8799 7.07339 24.4479 7.16539 23.9789 7.35339C22.1949 8.06639 20.6209 10.6884 19.7969 12.4004H20.2029C21.8819 12.3234 24.5599 11.9544 26.0579 10.4574C26.9809 9.53439 27.0239 8.38239 26.5879 7.72239Z" fill="#A13F10" />
  <path d="M3.143 26.3027H17.218V16.2257C16.406 17.4527 15.179 18.8247 13.545 19.2927C13.152 19.4057 12.756 19.4617 12.358 19.4617C11.278 19.4617 10.183 19.0487 9.087 18.2277C8.756 17.9787 8.689 17.5087 8.938 17.1777C9.184 16.8457 9.656 16.7787 9.988 17.0277C11.107 17.8657 12.135 18.1367 13.129 17.8517C15.035 17.3077 16.333 14.9057 16.796 13.9197C16.639 13.9157 16.482 13.9107 16.302 13.9027H0V23.1597C0 24.8927 1.411 26.3027 3.143 26.3027Z" fill="#A13F10" />
  <path d="M0 3.14239V12.4004H10.661C10.244 12.1454 9.844 11.8644 9.498 11.5174C8.182 10.2014 7.879 8.25839 8.776 6.89639C9.459 5.86339 10.979 5.07339 13.194 5.96039C14.884 6.63639 16.264 8.40639 17.218 9.98839V0.000390053H3.143C1.41 0.000390053 0 1.41039 0 3.14239Z" fill="#A13F10" />
  <path d="M36.7407 23.1597V13.9017H20.3147C20.1347 13.9107 19.9777 13.9157 19.8217 13.9187C20.2837 14.9057 21.5827 17.3077 23.4877 17.8507C24.4847 18.1367 25.5107 17.8667 26.6297 17.0267C26.9627 16.7787 27.4327 16.8467 27.6787 17.1767C27.9277 17.5087 27.8607 17.9787 27.5297 18.2267C26.4337 19.0487 25.3387 19.4607 24.2587 19.4607C23.8607 19.4607 23.4657 19.4047 23.0717 19.2917C20.8867 18.6657 19.4247 16.4237 18.7188 15.0757V26.3027H33.5977C35.3307 26.3027 36.7407 24.8927 36.7407 23.1597Z" fill="#A13F10" />
</svg>
  