<svg width="18" height="17" viewBox="0 0 18 17" fill="none" xmlns="http://www.w3.org/2000/svg">
<path d="M8.9 6.25944V6.26667H9C9.14445 6.26667 9.28749 6.23821 9.42095 6.18293C9.55441 6.12765 9.67567 6.04663 9.77782 5.94448C9.87996 5.84234 9.96099 5.72108 10.0163 5.58762C10.0715 5.45416 10.1 5.31112 10.1 5.16667C10.1 5.02221 10.0715 4.87917 10.0163 4.74572C9.96099 4.61226 9.87996 4.49099 9.77782 4.38885C9.67567 4.28671 9.55441 4.20568 9.42095 4.1504C9.28749 4.09512 9.14445 4.06667 9 4.06667C8.70862 4.06667 8.42917 4.18242 8.22313 4.38846C8.01709 4.5945 7.90133 4.87395 7.90133 5.16533C7.90133 5.45672 8.01709 5.73617 8.22313 5.94221C8.40546 6.12454 8.64529 6.23617 8.9 6.25944ZM9.54212 7.29122C9.39834 7.14744 9.20333 7.06667 9 7.06667C8.79667 7.06667 8.60166 7.14744 8.45789 7.29122C8.31411 7.435 8.23333 7.63 8.23333 7.83333V11.8333C8.23333 12.0367 8.31411 12.2317 8.45789 12.3754C8.60166 12.5192 8.79667 12.6 9 12.6C9.20333 12.6 9.39834 12.5192 9.54212 12.3755C9.68589 12.2317 9.76667 12.0367 9.76667 11.8333V7.83333C9.76667 7.63 9.68589 7.435 9.54212 7.29122ZM1.51658 5.40026C1.10951 6.383 0.9 7.43629 0.9 8.5C0.9 10.6483 1.75339 12.7085 3.27244 14.2276C4.79148 15.7466 6.85175 16.6 9 16.6C11.1483 16.6 13.2085 15.7466 14.7276 14.2276C16.2466 12.7085 17.1 10.6483 17.1 8.5C17.1 7.43629 16.8905 6.383 16.4834 5.40026C16.0764 4.41753 15.4797 3.52459 14.7276 2.77244C13.9754 2.02028 13.0825 1.42364 12.0997 1.01658C11.117 0.609513 10.0637 0.4 9 0.4C7.93629 0.4 6.883 0.609513 5.90026 1.01658C4.91753 1.42364 4.02459 2.02028 3.27244 2.77244C2.52028 3.52459 1.92364 4.41753 1.51658 5.40026ZM4.35667 3.85667C5.58815 2.62518 7.25841 1.93333 9 1.93333C10.7416 1.93333 12.4118 2.62518 13.6433 3.85667C14.8748 5.08815 15.5667 6.75841 15.5667 8.5C15.5667 10.2416 14.8748 11.9118 13.6433 13.1433C12.4118 14.3748 10.7416 15.0667 9 15.0667C7.25841 15.0667 5.58815 14.3748 4.35667 13.1433C3.12518 11.9118 2.43333 10.2416 2.43333 8.5C2.43333 6.75841 3.12518 5.08815 4.35667 3.85667Z" fill="#352B27" stroke="#352B27" stroke-width="0.2"/>
</svg>
