<svg xmlns="http://www.w3.org/2000/svg" width="18" height="18"><path fill="#393334" fill-rule="evenodd" d="M9 0a9 9 0 110 18A9 9 0 019 0zm.59 4.2H8.41c-.78.003-.966.01-1.388.029-.51.023-.86.104-1.165.223a2.35 2.35 0 00-.85.554 2.356 2.356 0 00-.554.85c-.12.305-.2.654-.223 1.165-.019.421-.026.607-.028 1.387v1.184c.002.78.009.965.028 1.387.024.51.104.86.223 1.165.123.315.287.583.554.85.266.267.534.431.85.554.305.119.654.2 1.165.223.482.022.655.028 1.76.029H9c1.304 0 1.467-.006 1.979-.029.51-.023.86-.104 1.165-.223.316-.123.583-.287.85-.554.267-.267.431-.535.554-.85.118-.305.199-.654.223-1.165.023-.512.029-.675.029-1.979s-.006-1.467-.029-1.98c-.024-.51-.105-.859-.223-1.164a2.356 2.356 0 00-.554-.85 2.346 2.346 0 00-.85-.554c-.306-.119-.655-.2-1.166-.223a25.14 25.14 0 00-1.387-.028zm-1.02.864v.001H9l.737.001c.636.002.816.009 1.203.027.468.021.722.1.891.165.224.087.384.19.552.359.168.168.272.328.36.552.065.169.143.423.164.89.02.447.027.618.028 1.532v.816a26.882 26.882 0 01-.028 1.531c-.021.468-.1.722-.165.891a1.484 1.484 0 01-.36.551 1.484 1.484 0 01-.55.36c-.17.065-.424.143-.892.165-.417.019-.593.025-1.358.027H8.419a24.501 24.501 0 01-1.358-.027c-.468-.022-.722-.1-.891-.166a1.487 1.487 0 01-.552-.359 1.488 1.488 0 01-.36-.551c-.065-.17-.144-.423-.165-.891a24.503 24.503 0 01-.027-1.359V8.417c.002-.765.008-.942.027-1.358.021-.468.1-.722.165-.891a1.49 1.49 0 01.36-.552 1.49 1.49 0 01.552-.36c.169-.066.423-.144.89-.165.444-.02.615-.026 1.51-.027zM9 6.535a2.465 2.465 0 100 4.93 2.465 2.465 0 000-4.93zM9 7.4a1.6 1.6 0 110 3.2 1.6 1.6 0 010-3.2zm2.563-1.538a.576.576 0 100 1.152.576.576 0 000-1.152z"/></svg>