<svg width="20" height="20" viewBox="0 0 20 20" fill="none" xmlns="http://www.w3.org/2000/svg">
<path fill-rule="evenodd" clip-rule="evenodd" d="M6.221 0.888374C7.1985 0.843374 7.51016 0.833374 10.0002 0.833374C12.4902 0.833374 12.8018 0.844207 13.7785 0.888374C14.7552 0.932541 15.4218 1.08837 16.0052 1.31421C16.616 1.54504 17.1702 1.90587 17.6285 2.37254C18.0952 2.83004 18.4552 3.38337 18.6852 3.99504C18.9118 4.57837 19.0668 5.24504 19.1118 6.22004C19.1568 7.19921 19.1668 7.51087 19.1668 10C19.1668 12.49 19.156 12.8017 19.1118 13.7792C19.0677 14.7542 18.9118 15.4209 18.6852 16.0042C18.4552 16.616 18.0946 17.1702 17.6285 17.6284C17.1702 18.095 16.616 18.455 16.0052 18.685C15.4218 18.9117 14.7552 19.0667 13.7802 19.1117C12.8018 19.1567 12.4902 19.1667 10.0002 19.1667C7.51016 19.1667 7.1985 19.1559 6.221 19.1117C5.246 19.0675 4.57933 18.9117 3.996 18.685C3.38426 18.455 2.83001 18.0944 2.37183 17.6284C1.90548 17.1706 1.54459 16.6166 1.31433 16.005C1.0885 15.4217 0.933496 14.755 0.888496 13.78C0.843496 12.8009 0.833496 12.4892 0.833496 10C0.833496 7.51004 0.844329 7.19837 0.888496 6.22171C0.932663 5.24504 1.0885 4.57837 1.31433 3.99504C1.54493 3.38344 1.9061 2.82947 2.37266 2.37171C2.8302 1.90546 3.38389 1.54458 3.99516 1.31421C4.5785 1.08837 5.246 0.933374 6.221 0.888374ZM13.7043 2.53837C12.7377 2.49421 12.4477 2.48504 10.0002 2.48504C7.55266 2.48504 7.26266 2.49421 6.296 2.53837C5.40183 2.57921 4.91683 2.72837 4.5935 2.85421C4.166 3.02087 3.86016 3.21837 3.53933 3.53921C3.2352 3.83508 3.00115 4.19528 2.85433 4.59337C2.7285 4.91671 2.57933 5.40171 2.5385 6.29587C2.49433 7.26254 2.48516 7.55254 2.48516 10C2.48516 12.4475 2.49433 12.7375 2.5385 13.7042C2.57933 14.5984 2.7285 15.0834 2.85433 15.4067C3.001 15.8042 3.23516 16.165 3.53933 16.4609C3.83516 16.765 4.196 16.9992 4.5935 17.1459C4.91683 17.2717 5.40183 17.4209 6.296 17.4617C7.26266 17.5059 7.55183 17.515 10.0002 17.515C12.4485 17.515 12.7377 17.5059 13.7043 17.4617C14.5985 17.4209 15.0835 17.2717 15.4068 17.1459C15.8343 16.9792 16.1402 16.7817 16.461 16.4609C16.7652 16.165 16.9993 15.8042 17.146 15.4067C17.2718 15.0834 17.421 14.5984 17.4618 13.7042C17.506 12.7375 17.5152 12.4475 17.5152 10C17.5152 7.55254 17.506 7.26254 17.4618 6.29587C17.421 5.40171 17.2718 4.91671 17.146 4.59337C16.9793 4.16587 16.7818 3.86004 16.461 3.53921C16.1651 3.2351 15.8049 3.00105 15.4068 2.85421C15.0835 2.72837 14.5985 2.57921 13.7043 2.53837ZM8.82933 12.8259C9.48321 13.0981 10.2113 13.1348 10.8893 12.9298C11.5672 12.7248 12.153 12.2908 12.5465 11.7019C12.94 11.113 13.1169 10.4058 13.0469 9.70096C12.9769 8.99616 12.6643 8.33752 12.1627 7.83754C11.8429 7.51794 11.4562 7.27322 11.0304 7.121C10.6047 6.96878 10.1505 6.91284 9.70058 6.95722C9.25063 7.0016 8.81612 7.14519 8.42833 7.37765C8.04054 7.61011 7.70912 7.92566 7.45792 8.30158C7.20671 8.67751 7.04199 9.10445 6.97559 9.55167C6.9092 9.9989 6.94279 10.4553 7.07395 10.888C7.2051 11.3207 7.43056 11.7189 7.7341 12.054C8.03763 12.3891 8.41168 12.6527 8.82933 12.8259ZM6.6685 6.66837C7.10602 6.23085 7.62543 5.88379 8.19708 5.64701C8.76873 5.41022 9.38142 5.28835 10.0002 5.28835C10.6189 5.28835 11.2316 5.41022 11.8032 5.64701C12.3749 5.88379 12.8943 6.23085 13.3318 6.66837C13.7694 7.1059 14.1164 7.62531 14.3532 8.19696C14.59 8.7686 14.7119 9.38129 14.7119 10C14.7119 10.6188 14.59 11.2315 14.3532 11.8031C14.1164 12.3748 13.7694 12.8942 13.3318 13.3317C12.4482 14.2153 11.2498 14.7117 10.0002 14.7117C8.75055 14.7117 7.55211 14.2153 6.6685 13.3317C5.78488 12.4481 5.28848 11.2497 5.28848 10C5.28848 8.75042 5.78488 7.55199 6.6685 6.66837ZM15.7568 5.99004C15.8653 5.88777 15.952 5.76478 16.0121 5.62835C16.0721 5.49193 16.1042 5.34485 16.1063 5.19582C16.1085 5.04678 16.0808 4.89883 16.0247 4.76072C15.9687 4.6226 15.8855 4.49713 15.7801 4.39174C15.6747 4.28635 15.5493 4.20317 15.4112 4.14714C15.273 4.09111 15.1251 4.06335 14.9761 4.06553C14.827 4.0677 14.6799 4.09975 14.5435 4.15979C14.4071 4.21982 14.2841 4.30662 14.1818 4.41504C13.9829 4.6259 13.874 4.90598 13.8782 5.19582C13.8825 5.48566 13.9995 5.76244 14.2045 5.96741C14.4094 6.17238 14.6862 6.2894 14.9761 6.29362C15.2659 6.29785 15.546 6.18895 15.7568 5.99004Z" fill="#352B27"/>
</svg>
