<svg width="16" height="16" viewBox="0 0 16 16" fill="none" xmlns="http://www.w3.org/2000/svg">
<path d="M12.6827 2.14146C13.0421 2.42877 13.0396 2.96051 12.7142 3.28589C12.3888 3.61129 11.8642 3.60562 11.4958 3.32984C10.6474 2.6947 9.63723 2.29941 8.57208 2.19444C7.22902 2.06209 5.88161 2.39952 4.75945 3.14923C3.63728 3.89895 2.80978 5.01457 2.41795 6.306C2.02612 7.59743 2.09419 8.98477 2.61057 10.2316C3.12695 11.4785 4.05969 12.5078 5.24986 13.144C6.44003 13.7803 7.81399 13.9842 9.13765 13.721C10.4613 13.4578 11.6527 12.7438 12.509 11.7006C13.188 10.8733 13.6229 9.87958 13.7739 8.83057C13.8394 8.37504 14.2064 8.00008 14.6666 8.00008C15.1269 8.00008 15.5048 8.37434 15.4538 8.83176C15.2936 10.2672 14.7213 11.6324 13.7975 12.758C12.6968 14.0993 11.1649 15.0174 9.46312 15.3559C7.76129 15.6944 5.99475 15.4324 4.46448 14.6144C2.9342 13.7964 1.73489 12.4732 1.07088 10.8701C0.406878 9.267 0.319262 7.48327 0.822965 5.82283C1.32667 4.16238 2.39052 2.72796 3.83327 1.76396C5.27601 0.799966 7.00837 0.366044 8.73518 0.536131C10.1844 0.678874 11.5544 1.23962 12.6827 2.14146Z" fill="#B0AEAF"/>
</svg>
