<svg width="32" height="32" viewBox="0 0 32 32" fill="none" xmlns="http://www.w3.org/2000/svg">
<g clip-path="url(#clip0_455_7607)">
<path d="M23.397 7.57887C24.0343 7.34871 24.6513 7.96567 24.4211 8.60303L18.6138 24.6847C18.5707 24.7788 18.5015 24.8585 18.4144 24.9144C18.3274 24.9703 18.2261 25 18.1226 25C18.0191 25 17.9178 24.9703 17.8307 24.9144C17.7437 24.8585 17.6745 24.7788 17.6314 24.6847L15.7884 18.1637C15.6094 17.5305 15.1305 17.0259 14.5076 16.8141L7.31525 14.3686C7.22119 14.3255 7.14148 14.2563 7.08559 14.1693C7.02971 14.0822 7 13.9809 7 13.8774C7 13.7739 7.02971 13.6726 7.08559 13.5856C7.14148 13.4985 7.22119 13.4293 7.31525 13.3862L23.397 7.57887Z" fill="#352B27"/>
</g>
<defs>
<clipPath id="clip0_455_7607">
<rect width="32" height="32" fill="white"/>
</clipPath>
</defs>
</svg>
