<svg xmlns="http://www.w3.org/2000/svg" width="18" height="18"><path fill="#393334" d="M9 0a9 9 0 00-3.28 17.38c-.08-.71-.15-1.803.031-2.582.163-.702 1.056-4.473 1.056-4.473s-.27-.539-.27-1.336c0-1.252.725-2.186 1.63-2.186.766 0 1.137.577 1.137 1.268 0 .773-.491 1.927-.745 2.997-.212.897.45 1.626 1.332 1.626 1.6 0 2.83-1.687 2.83-4.122 0-2.155-1.548-3.66-3.76-3.66-2.56 0-4.063 1.92-4.063 3.905 0 .773.297 1.603.67 2.054.073.09.083.167.062.259-.068.284-.22.895-.25 1.02-.04.165-.13.2-.302.12-1.123-.522-1.825-2.167-1.825-3.486 0-2.839 2.062-5.447 5.946-5.447 3.122 0 5.548 2.225 5.548 5.198 0 3.102-1.956 5.598-4.67 5.598-.912 0-1.77-.474-2.063-1.033 0 0-.451 1.717-.56 2.139-.204.781-.754 1.761-1.12 2.359A9 9 0 0018 9a9 9 0 00-9-9"/></svg>