<svg width="14" height="14" viewBox="0 0 20 20" fill="none" xmlns="http://www.w3.org/2000/svg">
<path fill-rule="evenodd" clip-rule="evenodd" d="M10.9199 1C10.9199 0.447715 10.4722 0 9.91992 0C9.36764 0 8.91992 0.447715 8.91992 1V9.06995H1C0.447715 9.06995 0 9.51766 0 10.0699C0 10.6222 0.447715 11.0699 1 11.0699H8.91992V18.98C8.91992 19.5323 9.36764 19.98 9.91992 19.98C10.4722 19.98 10.9199 19.5323 10.9199 18.98V11.0699H18.98C19.5323 11.0699 19.98 10.6222 19.98 10.0699C19.98 9.51766 19.5323 9.06995 18.98 9.06995H10.9199V1Z" fill="#ABA093"/>
</svg>
