<svg width="16" height="16" viewBox="0 0 16 16" fill="none" xmlns="http://www.w3.org/2000/svg">
  <path d="M3.53033 5.46967C3.23744 5.17678 2.76256 5.17678 2.46967 5.46967C2.17678 5.76256 2.17678 6.23744 2.46967 6.53033L3.53033 5.46967ZM8.33333 11.3333L7.803 11.8637L8.33333 12.394L8.86366 11.8637L8.33333 11.3333ZM14.197 6.53033C14.4899 6.23744 14.4899 5.76256 14.197 5.46967C13.9041 5.17678 13.4292 5.17678 13.1363 5.46967L14.197 6.53033ZM2.46967 6.53033L7.803 11.8637L8.86366 10.803L3.53033 5.46967L2.46967 6.53033ZM8.86366 11.8637L14.197 6.53033L13.1363 5.46967L7.803 10.803L8.86366 11.8637Z" fill="#352B27" />
</svg>
  