<svg width="24" height="25" viewBox="0 0 24 25" fill="none" xmlns="http://www.w3.org/2000/svg">
<path fill-rule="evenodd" clip-rule="evenodd" d="M5 11C5 7.96243 7.46243 5.5 10.5 5.5C13.5376 5.5 16 7.96243 16 11C16 14.0376 13.5376 16.5 10.5 16.5C7.46243 16.5 5 14.0376 5 11ZM10.5 4.5C6.91015 4.5 4 7.41015 4 11C4 14.5899 6.91015 17.5 10.5 17.5C12.1149 17.5 13.5923 16.911 14.7291 15.9362L19.1464 20.3536C19.3417 20.5488 19.6583 20.5488 19.8536 20.3536C20.0488 20.1583 20.0488 19.8417 19.8536 19.6464L15.4362 15.2291C16.411 14.0923 17 12.6149 17 11C17 7.41015 14.0899 4.5 10.5 4.5Z" fill="#352B27"/>
</svg>
