<svg xmlns="http://www.w3.org/2000/svg" width="18" height="18"><path fill="#393334" fill-rule="evenodd" d="M9 0a9 9 0 110 18A9 9 0 019 0zm3.775 12.434c-2.049-1.252-4.589-1.544-7.55-.867a.484.484 0 10.216.945c2.706-.618 5.003-.366 6.829.75a.484.484 0 10.505-.828zm.913-2.284c-2.4-1.474-5.91-1.89-8.733-1.033a.607.607 0 00.352 1.16c2.472-.75 5.658-.378 7.747.906a.606.606 0 00.634-1.033zm1.022-2.62C11.826 5.817 7.261 5.656 4.515 6.49a.727.727 0 00.422 1.391c2.392-.726 6.526-.589 9.031.9a.727.727 0 10.742-1.251z"/></svg>