<svg xmlns="http://www.w3.org/2000/svg" width="18" height="18"><path fill="#393334" fill-rule="evenodd" d="M9 0a9 9 0 110 18A9 9 0 019 0zm.265 4h-1.34s-.06.002-.068.074C7.699 5.366 7.1 6.2 6.027 6.62A.043.043 0 006 6.66v1.32c0 .023.02.042.043.042h1.004c.023 0 .043.02.043.044v2.896c0 .942.553 2.537 2.63 2.537h.07c.631-.011 1.29-.242 1.61-.553a.044.044 0 00.011-.045l-.426-1.271a.042.042 0 00-.056-.026c-.243.093-.51.148-.743.148-.578 0-.875-.314-.885-.934V8.067c0-.024.019-.044.043-.044h1.675a.043.043 0 00.043-.043V6.448a.043.043 0 00-.043-.043H9.35a.043.043 0 01-.043-.043V4.043A.043.043 0 009.265 4z"/></svg>