<svg width="12" height="12" viewBox="0 0 12 12" fill="none" xmlns="http://www.w3.org/2000/svg">
<g clip-path="url(#clip0_754_5397)">
<path d="M1 5.52619C0.999986 5.1712 1.07751 4.82145 1.226 4.50657C1.37449 4.1917 1.58957 3.92099 1.853 3.71741L4.853 1.39917C5.18918 1.13936 5.58962 1 6 1C6.41038 1 6.81082 1.13936 7.147 1.39917L10.147 3.71741C10.4104 3.92099 10.6255 4.1917 10.774 4.50657C10.9225 4.82145 11 5.1712 11 5.52619V9.89608C11 10.1889 10.8946 10.4696 10.7071 10.6767C10.5196 10.8837 10.2652 11 10 11H2C1.73478 11 1.48043 10.8837 1.29289 10.6767C1.10536 10.4696 1 10.1889 1 9.89608V5.52619Z" stroke="#352B27" stroke-linecap="round" stroke-linejoin="round"/>
<path d="M1 4L4.68474 6.58761C5.05805 6.85456 5.5219 7 6 7C6.4781 7 6.94195 6.85456 7.31526 6.58761L11 4" stroke="#352B27" stroke-linejoin="round"/>
</g>
<defs>
<clipPath id="clip0_754_5397">
<rect width="12" height="12" fill="white"/>
</clipPath>
</defs>
</svg>
